<svg xmlns="http://www.w3.org/2000/svg" fill="none" viewBox="0 0 24 24" stroke-width="1.5" stroke="currentColor">
  <path stroke-linecap="round" stroke-linejoin="round" d="M6.75 19.5l-1.07-1.08a2.25 2.25 0 010-3.182l1.07-1.08m12.5 0l1.07 1.08a2.25 2.25 0 010 3.182l-1.07 1.08M6.75 19.5H4.5m2.25 0h9m-9 0v-9.375c0-.621.504-1.125 1.125-1.125h9.75c.621 0 1.125.504 1.125 1.125V19.5m-9 0v-3.75m9 0v3.75m-9-6h9m-9 0H4.5m9 0h1.5M6.75 7.5h.75m-.75 0h-.75m.75 0v-.75m0 .75v.75m0-.75h.75m-.75 0h-.75m.75 0H9m-2.25 0H6.75m2.25 0h2.25m-2.25 0v-.75m0 .75v.75m0-.75H9m0 0h.75m0 0H12m-2.25 0H9m2.25 0h2.25" />
</svg>
