<svg xmlns="http://www.w3.org/2000/svg" viewBox="0 0 512 512" width="512" height="512">
  <defs>
    <linearGradient id="tdfGradient" x1="0%" y1="0%" x2="100%" y2="100%">
      <stop offset="0%" style="stop-color:#1e40af;stop-opacity:1" />
      <stop offset="100%" style="stop-color:#7c3aed;stop-opacity:1" />
    </linearGradient>
  </defs>
  
  <!-- Background Circle -->
  <circle cx="256" cy="256" r="240" fill="url(#tdfGradient)" opacity="0.1"/>
  
  <!-- Shield Base (Security/Trust) -->
  <path d="M256 80 L180 110 L180 220 Q180 280 220 320 L256 360 L292 320 Q332 280 332 220 L332 110 Z" 
        fill="url(#tdfGradient)" stroke="#1e40af" stroke-width="8"/>
  
  <!-- Document Symbol (TDF) -->
  <rect x="220" y="200" width="72" height="96" rx="4" fill="white" opacity="0.95"/>
  <line x1="240" y1="220" x2="272" y2="220" stroke="#1e40af" stroke-width="3" stroke-linecap="round"/>
  <line x1="240" y1="240" x2="272" y2="240" stroke="#1e40af" stroke-width="2" stroke-linecap="round"/>
  <line x1="240" y1="260" x2="260" y2="260" stroke="#1e40af" stroke-width="2" stroke-linecap="round"/>
  
  <!-- Lock Symbol (Security) -->
  <rect x="236" y="280" width="40" height="32" rx="2" fill="#1e40af"/>
  <path d="M246 280 L246 270 Q246 262 254 262 L258 262 Q266 262 266 270 L266 280" 
        fill="none" stroke="#1e40af" stroke-width="4" stroke-linecap="round"/>
  
  <!-- Checkmark (Verification) -->
  <path d="M220 320 L240 340 L292 288" 
        fill="none" stroke="#10b981" stroke-width="12" stroke-linecap="round" stroke-linejoin="round"/>
</svg>
